<?xml version="1.0" encoding="UTF-8"?>
<svg xmlns="http://www.w3.org/2000/svg" xmlns:xlink="http://www.w3.org/1999/xlink" width="32pt" height="32pt" viewBox="0 0 32 32" version="1.1">
<g id="surface1">
<path style=" stroke:none;fill-rule:nonzero;fill:rgb(0%,0%,0%);fill-opacity:1;" d="M 21.5 0 L 30.5 0 C 31.332031 0 32 0.667969 32 1.5 L 32 10.5 C 32 11.105469 31.636719 11.65625 31.074219 11.886719 C 30.511719 12.117188 29.867188 11.992188 29.4375 11.5625 L 27 9.125 L 21.5625 14.5625 C 20.976562 15.148438 20.023438 15.148438 19.445312 14.5625 L 17.445312 12.5625 C 16.855469 11.976562 16.855469 11.023438 17.445312 10.445312 L 22.882812 5.007812 L 20.4375 2.5625 C 20.007812 2.132812 19.882812 1.488281 20.113281 0.925781 C 20.34375 0.363281 20.894531 0 21.5 0 Z M 10.5 32 L 1.5 32 C 0.667969 32 0 31.332031 0 30.5 L 0 21.5 C 0 20.894531 0.363281 20.34375 0.925781 20.113281 C 1.488281 19.882812 2.132812 20.007812 2.5625 20.4375 L 5 22.875 L 10.4375 17.4375 C 11.023438 16.851562 11.976562 16.851562 12.554688 17.4375 L 14.554688 19.4375 C 15.144531 20.023438 15.144531 20.976562 14.554688 21.554688 L 9.117188 26.992188 L 11.554688 29.429688 C 11.988281 29.863281 12.113281 30.507812 11.882812 31.070312 C 11.648438 31.632812 11.101562 31.992188 10.492188 31.992188 Z M 10.5 32 "/>
</g>
</svg>
